<svg xmlns="http://www.w3.org/2000/svg" viewBox="-6871 1540 455 166.199">
    <defs>
        <style>
            .cls-1{fill:#ff113c}.cls-2{fill:#007ac6}.cls-3{fill:#472049}
        </style>
    </defs>
    <g id="logo-moveis-planejados" transform="translate(-6871 1540)">
        <g id="Group_76" data-name="Group 76" transform="translate(0 7.139)">
            <path id="Path_57" d="M0 7.5v97.187l33.411-49.212z" class="cls-1" data-name="Path 57" transform="translate(0 -7.5)"/>
            <path id="Path_58" d="M68.606 7.5v97.187L35.1 55.475z" class="cls-2" data-name="Path 58" transform="translate(-1.689 -7.5)"/>
            <path id="Path_59" d="M66.917 107.112H0L33.411 57.9z" class="cls-3" data-name="Path 59" transform="translate(0 -9.925)"/>
        </g>
        <g id="Group_77" data-name="Group 77" transform="translate(77.103)">
            <path id="Path_60" d="M165.592 90.775A49.034 49.034 0 0 0 96.2 21.478z" class="cls-1" data-name="Path 60" transform="translate(-81.731 -.346)"/>
            <path id="Path_61" d="M132.306 105.97l-2.094-48.927L95.469 22.3a49 49 0 0 0 34.553 83.766 18.339 18.339 0 0 0 2.284-.096z" class="cls-2" data-name="Path 61" transform="translate(-81 -1.073)"/>
            <path id="Path_62" d="M167.353 93.253L132.8 58.7l1.809 48.927a47.967 47.967 0 0 0 32.744-14.374z" class="cls-3" data-name="Path 62" transform="translate(-83.492 -2.824)"/>
            <path id="Path_63" d="M143.3 0v13.9l7.329-10.09z" class="cls-2" data-name="Path 63" transform="translate(-83.998)"/>
        </g>
        <g id="Group_78" data-name="Group 78" transform="translate(171.339 7.234)">
            <path id="Path_64" d="M180.2 7.6h26.367l6.758 21.322L219.893 7.6h26.748l-33.221 97.854z" class="cls-3" data-name="Path 64" transform="translate(-180.01 -7.6)"/>
            <path id="Path_65" d="M215 28.922L221.568 7.6h26.748l-19.894 58.446z" class="cls-1" data-name="Path 65" transform="translate(-181.684 -7.6)"/>
            <path id="Path_66" d="M213.316 28.922L206.653 7.6H180l19.8 58.446z" class="cls-2" data-name="Path 66" transform="translate(-180 -7.6)"/>
        </g>
        <g id="Group_79" data-name="Group 79" transform="translate(246.442 7.329)">
            <path id="Rectangle_99" d="M0 0h39.979v37.79H0z" class="cls-2" data-name="Rectangle 99" transform="translate(26.653)"/>
            <path id="Rectangle_100" d="M0 0h26.653v37.79H0z" class="cls-3" data-name="Rectangle 100"/>
            <path id="Rectangle_101" d="M0 0h39.979v37.79H0z" class="cls-2" data-name="Rectangle 101" transform="translate(26.653 59.493)"/>
            <path id="Rectangle_102" d="M0 0h26.653v37.79H0z" class="cls-3" data-name="Rectangle 102" transform="translate(0 59.493)"/>
            <path id="Path_67" d="M307.541 52.635h-21.988V47.4H258.9v21.7h26.653v-5.232h21.988z" class="cls-1" data-name="Path 67" transform="translate(-258.9 -9.61)"/>
        </g>
        <g id="Group_80" data-name="Group 80" transform="translate(325.544 7.329)">
            <path id="Rectangle_103" d="M0 0h27.605v42.454H0z" class="cls-2" data-name="Rectangle 103"/>
            <path id="Rectangle_104" d="M0 0h27.605v13.041H0z" class="cls-3" data-name="Rectangle 104" transform="translate(0 42.454)"/>
            <path id="Rectangle_105" d="M0 0h27.605v41.502H0z" class="cls-1" data-name="Rectangle 105" transform="translate(0 55.495)"/>
        </g>
        <g id="Group_81" data-name="Group 81" transform="translate(358.098 7.329)">
            <path id="Path_68" d="M406.375 7.7h-1.428a29.227 29.227 0 0 0 0 58.446h37.885V7.7z" class="cls-2" data-name="Path 68" transform="translate(-376.2 -7.7)"/>
            <path id="Path_69" d="M444.457 48.3h1.428a29.227 29.227 0 0 1 0 58.446H408V48.3z" class="cls-1" data-name="Path 69" transform="translate(-377.73 -9.654)"/>
            <path id="Rectangle_106" d="M0 0h36.362v19.799H0z" class="cls-3" data-name="Rectangle 106" transform="translate(30.27 38.646)"/>
        </g>
        <g id="Group_83" data-name="Group 83" transform="translate(.476 115.083)">
            <g id="Group_82" data-name="Group 82">
                <path id="Path_70" d="M.5 171.188V121.5h20.275a12.618 12.618 0 0 1 5.711 1.333 14.39 14.39 0 0 1 4.474 3.427 15.815 15.815 0 0 1 2.951 4.855 16.264 16.264 0 0 1 .1 11.232 17.921 17.921 0 0 1-2.76 4.95 14.007 14.007 0 0 1-4.379 3.427 12.219 12.219 0 0 1-5.616 1.333H2.88v19.228H.5zm2.38-21.417h18.371a9.776 9.776 0 0 0 4.759-1.142 12.032 12.032 0 0 0 3.617-2.951 16.194 16.194 0 0 0 2.285-4.188 13.483 13.483 0 0 0 .762-4.759 11.943 11.943 0 0 0-.952-4.855 14.926 14.926 0 0 0-2.57-4.093 11.145 11.145 0 0 0-3.808-2.856 9.6 9.6 0 0 0-4.664-1.047H2.88z" class="cls-2" data-name="Path 70" transform="translate(-.5 -120.929)"/>
                <path id="Path_71" d="M45.9 171.188V121.5h2.38V169h30.555v2.285H45.9z" class="cls-2" data-name="Path 71" transform="translate(-2.685 -120.929)"/>
                <path id="Path_72" d="M83.4 171.188l21.417-49.688h2l21.417 49.688h-2.665l-7.329-17.134H93.3l-7.33 17.134zm22.464-46.642l-11.8 27.414h23.416z" class="cls-2" data-name="Path 72" transform="translate(-4.489 -120.929)"/>
                <path id="Path_73" d="M141.28 126.069v45.119h-2.38V121.5h1.809l36.552 45.881V121.6h2.38v49.688h-2.38z" class="cls-2" data-name="Path 73" transform="translate(-7.159 -120.929)"/>
                <path id="Path_74" d="M228.54 168.9v2.285H195.7V121.5h32.174v2.285H198.08v20.941h26.082v2.285H198.08v22.084h30.46z" class="cls-2" data-name="Path 74" transform="translate(-9.892 -120.929)"/>
                <path id="Path_75" d="M236.052 166.9a16.9 16.9 0 0 0 9.9 2.76 12.478 12.478 0 0 0 6.758-1.523 9.3 9.3 0 0 0 3.808-4.474 24.481 24.481 0 0 0 1.713-7.234c.286-2.856.381-6.092.381-9.709V121.5h2.38v25.225c0 3.808-.19 7.234-.476 10.376a23.979 23.979 0 0 1-2.094 8 11.983 11.983 0 0 1-4.569 5.14 15.079 15.079 0 0 1-8 1.809A18.82 18.82 0 0 1 235.1 169z" class="cls-2" data-name="Path 75" transform="translate(-11.788 -120.929)"/>
                <path id="Path_76" d="M269.1 171.188l21.417-49.688h2l21.417 49.688h-2.665l-7.33-17.134H279l-7.329 17.134zm22.464-46.642l-11.8 27.414h23.416z" class="cls-2" data-name="Path 76" transform="translate(-13.424 -120.929)"/>
                <path id="Path_77" d="M324.6 171.188V121.5h16.182a24.762 24.762 0 0 1 10.28 2 20.007 20.007 0 0 1 7.329 5.331 22.852 22.852 0 0 1 4.379 7.9 33.278 33.278 0 0 1-.19 19.894 22.73 22.73 0 0 1-4.664 7.805 20.552 20.552 0 0 1-7.425 5.045 24.516 24.516 0 0 1-9.709 1.809H324.6zm37.219-24.939a27.71 27.71 0 0 0-1.428-9.043 20.321 20.321 0 0 0-4.093-7.139 17.583 17.583 0 0 0-6.663-4.664 22.533 22.533 0 0 0-9.043-1.713h-13.8v45.21h13.8a23.008 23.008 0 0 0 9.138-1.713 18.92 18.92 0 0 0 6.663-4.759 19.174 19.174 0 0 0 4-7.234 29.864 29.864 0 0 0 1.426-8.945z" class="cls-2" data-name="Path 77" transform="translate(-16.095 -120.929)"/>
                <path id="Path_78" d="M396.726 171.445a20.8 20.8 0 0 1-9.424-2.189 23.84 23.84 0 0 1-7.329-5.711 25.574 25.574 0 0 1-4.759-8.091 26.114 26.114 0 0 1-1.713-9.328 24.9 24.9 0 0 1 1.809-9.519 28 28 0 0 1 4.95-8.091 22.916 22.916 0 0 1 7.329-5.521 21.528 21.528 0 0 1 9.233-2.094 20.8 20.8 0 0 1 9.424 2.189 23.043 23.043 0 0 1 7.329 5.806 27.49 27.49 0 0 1 4.759 8.091 25.867 25.867 0 0 1 1.713 9.138 25.377 25.377 0 0 1-1.809 9.614 26.308 26.308 0 0 1-4.95 8 24.388 24.388 0 0 1-7.329 5.521 19.682 19.682 0 0 1-9.233 2.185zm-20.751-25.13a23.55 23.55 0 0 0 1.523 8.567 24.357 24.357 0 0 0 4.283 7.329 20.212 20.212 0 0 0 6.568 5.045 18.987 18.987 0 0 0 8.377 1.9 17.674 17.674 0 0 0 8.472-2 20.759 20.759 0 0 0 6.568-5.235 25.58 25.58 0 0 0 4.283-7.329 23.267 23.267 0 0 0 1.523-8.377 23.621 23.621 0 0 0-1.618-8.567 22.756 22.756 0 0 0-4.379-7.329 22.447 22.447 0 0 0-6.568-5.045 18.283 18.283 0 0 0-8.281-1.9 17.674 17.674 0 0 0-8.472 2 20.759 20.759 0 0 0-6.568 5.235 25.58 25.58 0 0 0-4.283 7.329 23.158 23.158 0 0 0-1.428 8.377z" class="cls-2" data-name="Path 78" transform="translate(-18.448 -120.9)"/>
                <path id="Path_79" d="M461.535 128.805a15.224 15.224 0 0 0-6-4.283 21.139 21.139 0 0 0-7.71-1.237c-5.331 0-9.138 1.047-11.518 3.046a10.013 10.013 0 0 0-3.617 8.091 9.822 9.822 0 0 0 .857 4.283 8.1 8.1 0 0 0 2.76 2.951 20.444 20.444 0 0 0 4.759 2c1.9.571 4.188 1.047 6.854 1.618s5.14 1.142 7.329 1.809a23.7 23.7 0 0 1 5.616 2.475 12.183 12.183 0 0 1 3.617 3.712 11.014 11.014 0 0 1 1.237 5.521 11.513 11.513 0 0 1-1.237 5.521 10.4 10.4 0 0 1-3.617 4 16.171 16.171 0 0 1-5.521 2.38 28.614 28.614 0 0 1-7.234.762 27.763 27.763 0 0 1-10.756-1.9 26.72 26.72 0 0 1-8.757-5.711l1.428-1.713a23.837 23.837 0 0 0 8 5.426 26.275 26.275 0 0 0 10.185 1.809c4.664 0 8.377-.857 11.042-2.57a8.611 8.611 0 0 0 4-7.805 9.153 9.153 0 0 0-.952-4.474 8.429 8.429 0 0 0-2.951-3.141 22.774 22.774 0 0 0-5.045-2.285 64.443 64.443 0 0 0-7.139-1.809c-2.665-.571-5.14-1.142-7.234-1.713a18.356 18.356 0 0 1-5.331-2.285 10.061 10.061 0 0 1-3.236-3.427 10.309 10.309 0 0 1-1.047-5.14 12.43 12.43 0 0 1 1.237-5.806 11.847 11.847 0 0 1 3.522-4.283 17.536 17.536 0 0 1 5.521-2.665 28.315 28.315 0 0 1 7.234-.952 23.236 23.236 0 0 1 8.472 1.428 21.048 21.048 0 0 1 6.663 4.474z" class="cls-2" data-name="Path 79" transform="translate(-21.099 -120.905)"/>
            </g>
        </g>
    </g>
</svg>
